<svg xmlns="http://www.w3.org/2000/svg" width="160" height="900">
  <defs>
    <style>
      .b{fill:#fff2e6}.c{fill:#fff}.d{fill:#f4cba2}.l{fill:#fee1c1}
    </style>
  </defs>
  <path fill="none" d="M0 0h160v900H0z"/>
  <path class="b" d="M90 117.6A35.6 35.6 0 0148 69.8a35.2 35.2 0 01-.4-37.3 35.2 35.2 0 0133-17.3 35.2 35.2 0 0135.3-12 35.2 35.2 0 0126.7 26.1 35.6 35.6 0 015.7 63.3 35.6 35.6 0 01-58.5 25z"/>
  <path class="c" d="M127.8 125.2A37.7 37.7 0 00150.6 94a38 38 0 00-6-66.4 38 38 0 00-65-14.8 38 38 0 00-34 57.2 38 38 0 0043.8 50.2 37.8 37.8 0 0038.4 5zM48.9 74.8a34.3 34.3 0 004.3 4.4 30.8 30.8 0 0015 15.3 30.8 30.8 0 0013.6 17.2 30.4 30.4 0 008.5 3.4l-1 .3A33.3 33.3 0 0149 74.8zm50.7-36.7A26.9 26.9 0 01127 74.8c-8.6-14-25.9-24.8-51-17.1A27 27 0 0199.7 38zm-28 18.3a15.4 15.4 0 01-2.8-5 19.4 19.4 0 01-1-8 26.4 26.4 0 019-17.3 25.7 25.7 0 0114.5-6.2 26.5 26.5 0 0114.8 3 23 23 0 00-4.5 2.6 19.8 19.8 0 00-6.4 8.3l-.1.3a31.7 31.7 0 00-23.5 22.3zm4.8 6A50 50 0 0193 59.8c-4.3 8.2-3.2 21 2.6 31.4a26.8 26.8 0 01-20.4-28.6 2.3 2.3 0 001.2 0zm21.8-2.2a33.8 33.8 0 0110.8 3.6c-1.5 5.7-8 13.7-13.3 13.8-1.3-6.8-.5-13.4 2.5-17.4zm26.2 19.5A26.9 26.9 0 01101.7 92a34.7 34.7 0 01-4.9-9.7c7-1 13.9-9 16.3-15.8a40.2 40.2 0 0111.3 13.3zm-2.9 10a15.2 15.2 0 01-.6 5.6 19 19 0 01-4 7.1 26 26 0 01-17.4 8.7 25.4 25.4 0 01-15.3-3.5 26.7 26.7 0 01-10.3-11 22.6 22.6 0 005.1.4 19.8 19.8 0 0010.2-3h.2a31.5 31.5 0 0032.1-4.3zM56 61.2A26.4 26.4 0 0163.3 48a22 22 0 001 5 19.6 19.6 0 006 8.7l.2.2a31.4 31.4 0 0014 29.3 15.3 15.3 0 01-5.6 1.1 19.9 19.9 0 01-8-1.6A26.1 26.1 0 0157.3 77a25.5 25.5 0 01-1.4-15.7zM76 17.5a33.5 33.5 0 00-2.8 5.5 30.6 30.6 0 00-10 18.8 30.9 30.9 0 00-12 18.3 30.4 30.4 0 00-.7 9.2l-.5-.8a32.7 32.7 0 01-.4-34.8A32.6 32.6 0 0176 17.5zm63 8.2a35 35 0 00-6-1A30.7 30.7 0 00112 21a30.9 30.9 0 00-21.2-5.8 30.4 30.4 0 00-8.9 2.3l.6-.8a33.3 33.3 0 0156.6 9zm-1.8 8.4a25.4 25.4 0 014.2 6.7 27 27 0 011.8 15 23.2 23.2 0 00-4-3.4 20 20 0 00-10-3.6h-.1a31.6 31.6 0 00-28.5-15.4 15.5 15.5 0 013.8-4.2 19.5 19.5 0 017.4-3.4 26.4 26.4 0 0119.2 3.2 25.5 25.5 0 016.2 5zm13.4 54a34.8 34.8 0 00-.9-6 30.9 30.9 0 00-3-21.2 31 31 0 00-1-22 29.7 29.7 0 00-4.9-7.7l1 .3a32.6 32.6 0 0120.8 28 32.6 32.6 0 01-12 28.6zm-8.5.8a25.5 25.5 0 01-5.1 6.2 26.8 26.8 0 01-13.8 6.3 22.3 22.3 0 002-4.7 19.6 19.6 0 00.4-10.6v-.3a31.3 31.3 0 006-31.8 15.5 15.5 0 015 2.2 19.8 19.8 0 015.6 6.1 26.5 26.5 0 012.9 19.3 24.7 24.7 0 01-3 7.3zM95 118.4a34.6 34.6 0 005.5-2.7 30.9 30.9 0 0019.2-9.4 30.8 30.8 0 0020.5-7.7 30.1 30.1 0 005.9-7v.9a33.3 33.3 0 01-51.1 26z"/>
  <path class="b" d="M135.3 447.3a30.1 30.1 0 01-35.4-40.5 29.8 29.8 0 01-.4-31.5 29.8 29.8 0 0128-14.6 29.8 29.8 0 0129.9-10.2 29.8 29.8 0 0122.5 22.1 30.1 30.1 0 014.8 53.6 30.2 30.2 0 01-49.4 21.1z"/>
  <path class="c" d="M167.3 453.8a32 32 0 0019.3-26.5 32.1 32.1 0 00-5-56.1 32.1 32.1 0 00-55-12.6A32.1 32.1 0 0097.7 407a32.1 32.1 0 0037 42.5 32 32 0 0032.6 4.3zM100.6 411a29 29 0 003.6 3.7 26 26 0 0012.6 13 26 26 0 0011.6 14.5 25.7 25.7 0 007.2 2.9l-.8.2a28.2 28.2 0 01-34.2-34.3zm42.8-31a22.8 22.8 0 0123.2 31c-7.3-11.8-21.9-21-43-14.5a22.8 22.8 0 0119.8-16.6zm-23.7 15.4a13 13 0 01-2.3-4.2 16.4 16.4 0 01-.8-6.9 22.3 22.3 0 017.6-14.6 21.8 21.8 0 0112.2-5.2 22.4 22.4 0 0112.6 2.5 19.4 19.4 0 00-3.8 2.2 16.7 16.7 0 00-5.5 7v.3a26.8 26.8 0 00-20 18.9zm4.1 5.1a42.4 42.4 0 0114-2.3c-3.6 7-2.7 17.8 2.3 26.5a22.6 22.6 0 01-17.3-24.2 2 2 0 001 0zm18.5-1.9a28.6 28.6 0 019 3c-1.2 5-6.7 11.6-11.2 11.7-1-5.7-.4-11.3 2.2-14.7zm22.2 16.5a22.7 22.7 0 01-19.3 10.3 29.4 29.4 0 01-4-8.2c5.9-.8 11.6-7.5 13.6-13.3a34 34 0 019.7 11.2zm-2.5 8.5a12.9 12.9 0 01-.5 4.7 16.1 16.1 0 01-3.4 6 22 22 0 01-14.7 7.4 21.5 21.5 0 01-13-3 22.6 22.6 0 01-8.7-9.3 19 19 0 004.4.4 16.7 16.7 0 008.6-2.5l.1-.1a26.6 26.6 0 0027.2-3.6zm-55.6-24.2a22.3 22.3 0 016.3-11.1 18.7 18.7 0 001 4.3 16.6 16.6 0 005 7.3l.1.2a26.6 26.6 0 0011.8 24.8 13 13 0 01-4.6.9 16.8 16.8 0 01-6.8-1.3 22.1 22.1 0 01-11.6-11.8 21.6 21.6 0 01-1.2-13.3zm17.2-37a28.3 28.3 0 00-2.4 4.7 26 26 0 00-8.4 16 26.1 26.1 0 00-10.2 15.5 25.8 25.8 0 00-.6 7.7l-.4-.6a28.2 28.2 0 0122-43.2zm53.3 7a29.6 29.6 0 00-5.1-.8 26 26 0 00-17.9-3.1 26.1 26.1 0 00-17.9-5 25.8 25.8 0 00-7.5 2l.5-.7a28.2 28.2 0 0147.9 7.6zm-1.6 7.1a21.5 21.5 0 013.6 5.7 22.8 22.8 0 011.5 12.7 19.7 19.7 0 00-3.3-2.9 17 17 0 00-8.5-3h-.1a26.8 26.8 0 00-24.1-13.1 13 13 0 013.2-3.5 16.5 16.5 0 016.3-2.9 22.3 22.3 0 0116.2 2.7 21.5 21.5 0 015.2 4.3zm11.4 45.7a29.4 29.4 0 00-.7-5 26.1 26.1 0 00-2.6-18 26.2 26.2 0 00-.9-18.6 25.1 25.1 0 00-4-6.5l.7.2a28.2 28.2 0 017.5 48zm-7.2.7a21.6 21.6 0 01-4.3 5.2 22.7 22.7 0 01-11.6 5.4 18.9 18.9 0 001.7-4 16.6 16.6 0 00.3-9l-.1-.2a26.5 26.5 0 005-27 13 13 0 014.3 2 16.7 16.7 0 014.8 5.1 22.4 22.4 0 012.4 16.3 20.9 20.9 0 01-2.5 6.2zm-40 25a29.3 29.3 0 004.7-2.3 26.1 26.1 0 0016.2-8 26 26 0 0017.4-6.5 25.5 25.5 0 005-6v.9a28.2 28.2 0 01-43.2 22z"/>
  <path class="b" d="M45.3 380a25.8 25.8 0 01-36.5-28 25.5 25.5 0 01-5.6-26.4 25.5 25.5 0 0121-17 25.5 25.5 0 0123.3-13.5 25.5 25.5 0 0122.6 14.7 25.8 25.8 0 0113 44.1 25.8 25.8 0 01-37.8 26z"/>
  <path class="c" d="M73.2 380A27.3 27.3 0 0085 354.5a27.5 27.5 0 00-13.7-46.2 27.5 27.5 0 00-48.2-1.2A27.5 27.5 0 007 352.5a27.5 27.5 0 0038.2 29.3 27.4 27.4 0 0028-1.8zM10 355.4a24.8 24.8 0 003.7 2.5 22.3 22.3 0 0012.7 8.8 22.3 22.3 0 0012.1 10.2 22 22 0 006.6 1.2l-.7.3a23.6 23.6 0 01-25-2.6 23.6 23.6 0 01-9.4-20.4zm30.7-33.2a19.4 19.4 0 0124.7 22.1c-8.1-8.7-22-14-38.6-4.9a19.5 19.5 0 0113.9-17.2zm-17.3 17A11.1 11.1 0 0121 336a14 14 0 01-1.9-5.6 19.1 19.1 0 014-13.5 18.6 18.6 0 019.3-6.5 19.1 19.1 0 0111 0 16.6 16.6 0 00-2.8 2.5 14.3 14.3 0 00-3.4 6.9v.2A23 23 0 0023.4 339zm4.3 3.5a36.2 36.2 0 0111.4-4.2c-1.9 6.4.7 15.3 6.3 21.8A19.4 19.4 0 0127 343a1.7 1.7 0 001-.2zM43 338a24.5 24.5 0 018.1 1c-.2 4.3-3.7 10.9-7.5 11.7-1.8-4.6-2.2-9.4-.6-12.7zm21.4 10.2A19.4 19.4 0 0149.9 360a25.1 25.1 0 01-4.8-6.2c4.9-1.6 8.6-8.3 9.3-13.5a29 29 0 0110 7.9zm-.7 7.5a11 11 0 01.3 4 13.8 13.8 0 01-1.8 5.6 18.8 18.8 0 01-11 8.7 18.4 18.4 0 01-11.4-.3 19.3 19.3 0 01-8.9-6.4 16.3 16.3 0 003.7-.4 14.3 14.3 0 006.8-3.6h.1a22.8 22.8 0 0022.2-7.6zm-50.6-11a19.1 19.1 0 013.3-10.4 16 16 0 001.6 3.5 14.2 14.2 0 005.4 5.3l.2.1a22.7 22.7 0 0014 18.8 11 11 0 01-3.7 1.6 14.4 14.4 0 01-6 0 18.9 18.9 0 01-11.6-8 18.5 18.5 0 01-3.2-10.8zm8.1-33.8a24.2 24.2 0 00-1.2 4.3 22.2 22.2 0 00-4.4 14.8 22.4 22.4 0 00-6 14.7 22 22 0 001 6.6l-.6-.5a24.1 24.1 0 0111.2-39.9zm45.8-3.1a25.3 25.3 0 00-4.4.1 22.2 22.2 0 00-15.5.4 22.3 22.3 0 00-15.8-1.1 22 22 0 00-6 2.9l.3-.7a23.7 23.7 0 0121.9-12.6 23.6 23.6 0 0119.5 11zm0 6.2a18.4 18.4 0 013.9 4.1 19.5 19.5 0 013.4 10.4 16.8 16.8 0 00-3.3-1.9 14.5 14.5 0 00-7.6-1h-.1a22.9 22.9 0 00-22.4-7 11.2 11.2 0 012.1-3.4 14 14 0 014.8-3.5 19 19 0 0114-.5A18.4 18.4 0 0167 314zm17.2 36.4a25.2 25.2 0 00-1.5-4.2 22.3 22.3 0 00-5.2-14.6 22.4 22.4 0 00-3.8-15.4 21.5 21.5 0 00-4.6-4.8h.7a24.1 24.1 0 0114.4 39zm-6 1.8a18.5 18.5 0 01-2.7 5 19.4 19.4 0 01-8.8 6.5 16.1 16.1 0 00.7-3.7 14.2 14.2 0 00-1.2-7.5l-.1-.2a22.6 22.6 0 00-.3-23.4 11.2 11.2 0 013.9.9 14.3 14.3 0 014.8 3.5 19.2 19.2 0 014.8 13.2 17.8 17.8 0 01-1 5.7zM49 379.8a25 25 0 003.5-2.7 22.3 22.3 0 0012.2-9.4 22.3 22.3 0 0013.5-8.4 21.8 21.8 0 003.2-5.8l.1.6A24.1 24.1 0 0149 379.8z"/>
  <path class="b" d="M91.8 747a32.6 32.6 0 01-53.4-22.7 32.2 32.2 0 01-15.2-30.5 32.2 32.2 0 0120.3-27.4A32.2 32.2 0 0168 642.5a32.2 32.2 0 0132.3 11 32.6 32.6 0 0129.8 49.8A32.6 32.6 0 0191.8 747z"/>
  <path class="c" d="M126 738.3a34.5 34.5 0 006.4-34.8 34.7 34.7 0 00-31.3-52.3 34.7 34.7 0 00-59.4 13.6 34.7 34.7 0 00-5.3 60.7 34.7 34.7 0 0056 23.9 34.6 34.6 0 0033.6-11.1zM41 728a31.3 31.3 0 005.3 2 28.2 28.2 0 0018.4 6.6 28.2 28.2 0 0018 8.7 27.8 27.8 0 008.4-.6l-.6.6A30.5 30.5 0 0141 728.1zm27.1-50.3a24.6 24.6 0 0137.2 19.3c-12.6-8-31.2-10.2-48.7 6.1A24.6 24.6 0 0168 677.8zm-15.7 26.1A14 14 0 0148 701a17.7 17.7 0 01-4-6.3 24.1 24.1 0 01.5-17.8 23.5 23.5 0 019.5-10.8 24.2 24.2 0 0113.4-3.5 21 21 0 00-2.7 4 18 18 0 00-2 9.4v.2A29 29 0 0052.5 704zm6.4 3.1a45.8 45.8 0 0112.5-8.8c-.3 8.4 5.7 18.6 14.7 24.7a24.5 24.5 0 01-28.2-15.4 2 2 0 001-.5zm17-10.5a31 31 0 0110.3-1.3c1 5.3-1.2 14.4-5.4 16.6-3.8-5-5.8-10.8-4.9-15.3zm29.4 5.6a24.6 24.6 0 01-14 19 31.7 31.7 0 01-7.8-6c5.4-3.5 7.9-12.8 7.1-19.4a36.7 36.7 0 0114.7 6.4zm1.6 9.4a14 14 0 011.6 4.9 17.4 17.4 0 01-.4 7.4A23.8 23.8 0 0197.2 738a23.2 23.2 0 01-14 3.2 24.4 24.4 0 01-13-5 20.6 20.6 0 004.5-1.7 18 18 0 007.2-6.4v-.2a28.8 28.8 0 0024.9-16.3zm-65.5 2.6a24.1 24.1 0 01.9-13.8 20.2 20.2 0 003 3.7 17.9 17.9 0 008.2 4.9h.3a28.7 28.7 0 0023.1 18.6 14 14 0 01-4 3.1 18.2 18.2 0 01-7.3 1.9 23.9 23.9 0 01-16.8-6 23.3 23.3 0 01-7.4-12.4zm-.6-44a30.6 30.6 0 00-.2 5.7 28 28 0 00-.7 19.4 28.3 28.3 0 00-2.6 20 27.8 27.8 0 003.1 7.7l-.8-.4a30.5 30.5 0 011.2-52.4zm55-18.2a32 32 0 00-5.3 1.5 28.1 28.1 0 00-18.8 5.4 28.2 28.2 0 00-19.8 3.6 27.8 27.8 0 00-6.4 5.4l.2-.9a30.5 30.5 0 0150.2-15zm1.9 7.6a23.3 23.3 0 016.1 3.8 24.6 24.6 0 017.5 11.7 21.2 21.2 0 00-4.6-1.3 18.3 18.3 0 00-9.6 1l-.2.1a29 29 0 00-29.6-1.4 14.1 14.1 0 011.5-5 17.8 17.8 0 014.8-5.7 24.1 24.1 0 0117-5 23.3 23.3 0 017 1.8zm32.6 39.1a31.8 31.8 0 00-3.2-4.6 28.2 28.2 0 00-11-16.3 28.3 28.3 0 00-9.5-17.6 27.2 27.2 0 00-7-4.5h.8a30.5 30.5 0 0129.9 43zm-6.7 4a23.4 23.4 0 01-1.8 7.1 24.5 24.5 0 01-8.8 10.7 20.4 20.4 0 00-.2-4.7 18 18 0 00-4-8.8l-.1-.2a28.6 28.6 0 00-7.8-28.6 14.2 14.2 0 015.1-.1 18 18 0 017 2.7 24.2 24.2 0 0110 14.7 22.5 22.5 0 01.6 7.3zm-27.2 43.1a31.6 31.6 0 003.5-4.4 28.2 28.2 0 0012-15.4 28.1 28.1 0 0013.8-14.5 27.5 27.5 0 002.1-8.1l.4.8a30.5 30.5 0 01-31.8 41.6z"/>
  <g>
    <path class="d" d="M72 601.7a1 1 0 00-.8.3c-21.5 23-28.8 43.5-22.9 64.7 5.2 18.7 19.8 35 35.3 52.3 36.2 40.5 73.6 82.3-9.7 159.4a1 1 0 101.4 1.6c38-35.1 54.5-66.3 50.4-95.5-3.6-25.8-22.4-46.7-40.5-67-30-33.4-58.3-65.1-12.4-114a1 1 0 00-.8-1.8z"/>
    <path class="d" d="M100 629a1 1 0 00-.7 1.7c22 24.3 25 52.4 23.7 71.8-2.5 36-20.6 66.8-36.4 80.1a1 1 0 001.4 1.7c16.2-13.6 34.7-45 37.2-81.7 1.9-28.3-6.5-53.7-24.3-73.3a1 1 0 00-.8-.4z"/>
    <path d="M146 693.9a20.2 20.2 0 00-5.1 4.5c-.9 1.1-2 3.5-3.7 3.7a3.4 3.4 0 01-3-.9c-2.6-2.9-2.4-7-6.6-11.1a2.8 2.8 0 00-.7-.6c1.4 3.5 3.8 12-1.8 19.4a20.2 20.2 0 00-6-3.5c-1.3-.5-3.8-.8-4.6-2.4a3.4 3.4 0 010-3c1.9-3.4 5.9-4.5 8.5-9.8a2.8 2.8 0 00.3-.8c-2.9 2.3-10.3 7.3-19 4.2a20.2 20.2 0 001.5-6.7c0-1.4-.5-3.9.8-5.1a3.4 3.4 0 013-1c3.8.8 6 4.2 11.8 5a2.8 2.8 0 001 0c-3.2-2-10.2-7.4-10-16.7a20.2 20.2 0 006.9-.6c1.3-.4 3.5-1.7 5.1-.8a3.4 3.4 0 011.9 2.4c.4 4-2.2 7.1-1.2 13a2.8 2.8 0 00.3.8c1-3.6 4-12 12.9-14.6a20.2 20.2 0 002.6 6.3c.8 1.2 2.7 2.9 2.4 4.7a3.4 3.4 0 01-1.7 2.5c-3.6 1.6-7.4.1-12.7 2.8a2.8 2.8 0 00-.7.5c3.7-.2 12.6.2 17.9 7.8z" fill="#a4e6ff"/>
    <path class="d" d="M72.8 599a2.8 2.8 0 00-.4.8c3.3-1.7 11.5-5.2 19.5-.5a20.2 20.2 0 00-2.8 6.3c-.3 1.4-.3 4-1.8 4.9a3.4 3.4 0 01-3 .4c-3.6-1.5-5.2-5.3-10.7-7.3a2.8 2.8 0 00-1-.2c2.8 2.6 8.6 9.4 6.6 18.4a20.2 20.2 0 00-6.9-.7c-1.4.1-3.8 1-5.2-.2a3.4 3.4 0 01-1.3-2.7c.3-4 3.5-6.6 3.6-12.5a2.8 2.8 0 000-.9c-1.7 3.4-6.3 11-15.5 11.9a20.2 20.2 0 00-1.4-6.8c-.6-1.2-2.1-3.3-1.5-5a3.4 3.4 0 012.2-2c3.8-1 7.3 1.2 13-.5a2.8 2.8 0 00.8-.3c-3.7-.5-12.4-2.6-16-11a20.2 20.2 0 006-3.5c1-1 2.4-3 4.2-2.9a3.4 3.4 0 012.7 1.4c2 3.4 1 7.3 4.4 12.2a2.8 2.8 0 00.6.7c-.7-3.7-1.4-12.6 5.5-18.7a20.2 20.2 0 005.1 4.6c1.2.7 3.7 1.5 4.1 3.2a3.4 3.4 0 01-.5 3c-2.6 3-6.6 3.3-10.3 8zM42.8 656.3c-.2 3-3.4 3-8 0-3.2-2.2-10.3-9.9-8.5-19.9 2.2 7.6 6.4 11.3 12 13 5.5 1.7 7.2 5.5 4.5 7zM106 637.2c-.8 3.2-3.8 3.4-7.5-1.4a50.6 50.6 0 01-8-14.4 50.6 50.6 0 0114.3 8.2c4.7 3.7 4.5 6.7 1.3 7.6zM53.7 655.2c1 2.9 3.7 2.9 6.8-1.6 2.2-3.1 3.4-8 4.6-14.7-3.8 6.4-7.6 7-11.2 9.7-4.4 3.2-3.2 6-.2 6.6z"/>
    <path class="d" d="M39.3 653.2a.8.8 0 00-.3 1.6c5.2 1.5 9.6 12.8 11.3 17a14.4 14.4 0 001 2.3.8.8 0 001.3-1l-.8-1.8c-1.9-4.9-6.3-16.3-12.3-18a.8.8 0 00-.2-.1z"/>
    <path class="d" d="M56.4 651.6a.8.8 0 00-.3 0c-5.8 2.6-6.9 14.9-5 22.2a.8.8 0 001.5-.4c-1.8-7.5-.3-18.3 4.2-20.3a.8.8 0 00-.4-1.5z"/>
    <g>
      <path class="d" d="M72 409.5a1 1 0 00-.8.3c-21.5 23-28.8 43.5-22.9 64.7 5.2 18.7 19.8 35 35.3 52.3 36.2 40.5 73.6 82.3-9.7 159.4a1 1 0 001.4 1.6c38-35.1 54.5-66.3 50.4-95.5-3.6-25.8-22.4-46.7-40.5-67-30-33.5-58.3-65.1-12.4-114a1 1 0 00-.8-1.8z"/>
      <path class="d" d="M100 436.7a1 1 0 00-.7 1.8c22 24.3 25 52.4 23.7 71.8-2.5 36-20.6 66.8-36.4 80a1 1 0 001.4 1.8c16.2-13.6 34.7-45 37.2-81.7 1.9-28.3-6.5-53.7-24.3-73.3a1 1 0 00-.8-.4z"/>
      <path d="M146 501.7a20.2 20.2 0 00-5.1 4.5c-.9 1.1-2 3.5-3.7 3.7a3.4 3.4 0 01-3-.9c-2.6-2.9-2.4-7-6.6-11.1a2.8 2.8 0 00-.7-.6c1.4 3.5 3.8 12-1.8 19.4a20.2 20.2 0 00-6-3.5c-1.3-.5-3.8-.8-4.6-2.4a3.4 3.4 0 010-3c1.9-3.4 5.9-4.5 8.5-9.8a2.8 2.8 0 00.3-.8c-2.9 2.3-10.3 7.3-19 4.2a20.2 20.2 0 001.5-6.7c0-1.4-.5-3.9.8-5.1a3.4 3.4 0 013-1c3.8.7 6 4.2 11.8 5a2.8 2.8 0 001 0c-3.2-2-10.2-7.4-10-16.7a20.2 20.2 0 006.9-.6c1.3-.4 3.5-1.7 5.1-.8a3.4 3.4 0 011.9 2.4c.4 4-2.2 7.1-1.2 13a2.8 2.8 0 00.3.8c1-3.6 4-12 12.9-14.6a20.2 20.2 0 002.6 6.3c.8 1.2 2.7 2.9 2.4 4.7a3.4 3.4 0 01-1.7 2.5c-3.6 1.6-7.4.1-12.7 2.8a2.8 2.8 0 00-.7.5c3.7-.2 12.6.2 17.9 7.8z" fill="#fdebac"/>
      <path d="M72.8 406.8a2.8 2.8 0 00-.4.8c3.3-1.7 11.5-5.2 19.5-.5a20.2 20.2 0 00-2.8 6.3c-.3 1.4-.3 4-1.8 4.9a3.4 3.4 0 01-3 .4c-3.6-1.5-5.2-5.3-10.7-7.3a2.8 2.8 0 00-1-.2c2.8 2.6 8.6 9.4 6.6 18.4a20.2 20.2 0 00-6.9-.7c-1.4.1-3.8 1-5.2-.2a3.4 3.4 0 01-1.3-2.7c.3-4 3.5-6.6 3.6-12.5a2.8 2.8 0 000-.9c-1.7 3.4-6.3 11-15.5 11.9a20.2 20.2 0 00-1.4-6.8c-.6-1.2-2.1-3.3-1.5-5a3.4 3.4 0 012.2-2c3.8-1 7.3 1.2 13-.5a2.8 2.8 0 00.8-.3c-3.7-.5-12.4-2.6-16-11a20.2 20.2 0 006-3.5c1-1 2.4-3 4.2-3A3.4 3.4 0 0164 394c2 3.4 1 7.3 4.4 12.2a2.8 2.8 0 00.6.7c-.7-3.7-1.4-12.6 5.5-18.7a20.2 20.2 0 005.1 4.6c1.2.7 3.7 1.5 4.1 3.2a3.4 3.4 0 01-.5 3c-2.6 3-6.6 3.3-10.3 8z" fill="#c9daf8"/>
      <path class="d" d="M42.8 464.1c-.2 3-3.4 2.9-8-.1-3.2-2-10.3-9.8-8.5-19.8 2.2 7.6 6.4 11.3 12 13 5.5 1.7 7.2 5.5 4.5 7zM106 445c-.8 3.2-3.8 3.3-7.5-1.4a50.6 50.6 0 01-8-14.4 50.6 50.6 0 0114.3 8.2c4.7 3.7 4.5 6.7 1.3 7.6zM53.7 463c1 2.9 3.7 2.9 6.8-1.6 2.2-3.1 3.4-8 4.6-14.7-3.8 6.4-7.6 7-11.2 9.6-4.4 3.3-3.2 6-.2 6.7z"/>
      <path class="d" d="M39.3 461a.8.8 0 00-.3 1.6c5.2 1.5 9.6 12.8 11.3 17a14.4 14.4 0 001 2.3.8.8 0 001.3-1l-.8-1.8c-1.9-5-6.3-16.3-12.3-18a.8.8 0 00-.2-.1z"/>
      <path class="d" d="M56.4 459.3a.8.8 0 00-.3.1c-5.8 2.6-6.9 14.8-5 22.2a.8.8 0 001.5-.4c-1.8-7.5-.3-18.3 4.2-20.3a.8.8 0 00-.4-1.6z"/>
    </g>
    <g>
      <path class="d" d="M72 217.3a1 1 0 00-.8.3c-21.5 23-28.8 43.5-22.9 64.7 5.2 18.7 19.8 35 35.3 52.3 36.2 40.4 73.6 82.3-9.7 159.3a1 1 0 001.4 1.7c38-35.1 54.5-66.4 50.4-95.5-3.6-25.8-22.4-46.7-40.5-67-30-33.5-58.3-65.1-12.4-114a1 1 0 00-.8-1.8z"/>
      <path class="d" d="M100 244.5a1 1 0 00-.7 1.8c22 24.3 25 52.4 23.7 71.8-2.5 36-20.6 66.8-36.4 80A1 1 0 1088 400c16.2-13.6 34.7-45 37.2-81.7 1.9-28.3-6.5-53.7-24.3-73.3a1 1 0 00-.8-.4z"/>
      <path d="M146 309.5a20.2 20.2 0 00-5.1 4.5c-.9 1.1-2 3.4-3.7 3.7a3.4 3.4 0 01-3-1c-2.6-2.8-2.4-6.9-6.6-11a2.8 2.8 0 00-.7-.6c1.4 3.5 3.8 12-1.8 19.4a20.2 20.2 0 00-6-3.5c-1.3-.5-3.8-.8-4.6-2.4a3.4 3.4 0 010-3c1.9-3.4 5.9-4.5 8.5-9.8a2.8 2.8 0 00.3-.8c-2.9 2.3-10.3 7.3-19 4.2a20.2 20.2 0 001.5-6.7c0-1.4-.5-4 .8-5.1a3.4 3.4 0 013-1c3.8.7 6 4.2 11.8 5a2.8 2.8 0 001 0c-3.2-2-10.2-7.5-10-16.7a20.2 20.2 0 006.9-.6c1.3-.4 3.5-1.7 5.1-.8a3.4 3.4 0 011.9 2.4c.4 3.9-2.2 7.1-1.2 13a2.8 2.8 0 00.3.8c1-3.6 4-12 12.9-14.6a20.2 20.2 0 002.6 6.3c.8 1.2 2.7 2.9 2.4 4.6a3.4 3.4 0 01-1.7 2.5c-3.6 1.7-7.4.2-12.7 2.9a2.8 2.8 0 00-.7.5c3.7-.2 12.6.2 17.9 7.8z" fill="#fbdbeb"/>
      <path d="M72.8 214.6a2.8 2.8 0 00-.4.8c3.3-1.7 11.5-5.2 19.5-.5a20.2 20.2 0 00-2.8 6.3c-.3 1.4-.3 4-1.8 4.9a3.4 3.4 0 01-3 .4c-3.6-1.5-5.2-5.3-10.7-7.3a2.8 2.8 0 00-1-.2c2.8 2.6 8.6 9.4 6.6 18.4a20.2 20.2 0 00-6.9-.7c-1.4.1-3.8 1-5.2-.2a3.4 3.4 0 01-1.3-2.8c.3-3.8 3.5-6.5 3.6-12.4a2.8 2.8 0 000-.9c-1.7 3.4-6.3 11-15.5 11.9a20.2 20.2 0 00-1.4-6.8c-.6-1.2-2.1-3.3-1.5-5a3.4 3.4 0 012.2-2c3.8-1 7.3 1.2 13-.5a2.8 2.8 0 00.8-.3c-3.7-.6-12.4-2.6-16-11a20.2 20.2 0 006-3.5c1-1 2.4-3 4.2-3a3.4 3.4 0 012.7 1.5c2 3.3 1 7.3 4.4 12.2a2.8 2.8 0 00.6.7c-.7-3.7-1.4-12.6 5.5-18.7a20.2 20.2 0 005.1 4.6c1.2.7 3.7 1.5 4.1 3.2a3.4 3.4 0 01-.5 3c-2.6 3-6.6 3.3-10.3 8z" fill="#b5eba2"/>
      <path class="d" d="M42.8 272c-.2 3-3.4 2.8-8-.2-3.2-2-10.3-9.8-8.5-19.8 2.2 7.6 6.4 11.3 12 13 5.5 1.7 7.2 5.5 4.5 7zM106 252.7c-.8 3.3-3.8 3.4-7.5-1.3a50.6 50.6 0 01-8-14.4 50.6 50.6 0 0114.3 8.1c4.7 3.8 4.5 6.8 1.3 7.6zM53.7 270.8c1 2.9 3.7 2.9 6.8-1.6 2.2-3.2 3.4-8 4.6-14.7-3.8 6.4-7.6 7-11.2 9.6-4.4 3.3-3.2 6-.2 6.7z"/>
      <path class="d" d="M39.3 268.8a.8.8 0 00-.3 1.6c5.2 1.5 9.6 12.8 11.3 17a14.4 14.4 0 001 2.3.8.8 0 001.3-1l-.8-1.8c-1.9-5-6.3-16.3-12.3-18a.8.8 0 00-.2-.1z"/>
      <path class="d" d="M56.4 267.1a.8.8 0 00-.3.1c-5.8 2.6-6.9 14.8-5 22.2a.8.8 0 001.5-.4c-1.8-7.5-.3-18.3 4.2-20.3a.8.8 0 00-.4-1.6z"/>
    </g>
    <g>
      <path class="d" d="M72 25a1 1 0 00-.8.4C49.7 48.4 42.4 69 48.3 90.1c5.2 18.7 19.8 35 35.3 52.3 36.2 40.4 73.6 82.3-9.7 159.3a1 1 0 001.4 1.6c38-35 54.5-66.3 50.4-95.4-3.6-25.8-22.4-46.7-40.5-67-30-33.5-58.3-65.1-12.4-114a1 1 0 00-.8-1.8z"/>
      <path class="d" d="M100 52.3a1 1 0 00-.7 1.8c22 24.3 25 52.4 23.7 71.8-2.5 36-20.6 66.8-36.4 80a1 1 0 101.4 1.8c16.2-13.6 34.7-45 37.2-81.7 1.9-28.3-6.5-53.7-24.3-73.4a1 1 0 00-.8-.3z"/>
      <path d="M146 117.3a20.2 20.2 0 00-5.1 4.5c-.9 1.1-2 3.4-3.7 3.7a3.4 3.4 0 01-3-1c-2.6-2.8-2.4-6.9-6.6-11a2.8 2.8 0 00-.7-.6c1.4 3.5 3.8 12-1.8 19.4a20.2 20.2 0 00-6-3.5c-1.3-.5-3.8-.8-4.6-2.4a3.4 3.4 0 010-3c1.9-3.4 5.9-4.5 8.5-9.8a2.8 2.8 0 00.3-.8c-2.9 2.3-10.3 7.3-19 4.2a20.2 20.2 0 001.5-6.7c0-1.4-.5-4 .8-5.2a3.4 3.4 0 013-1c3.8.8 6 4.3 11.8 5.2a2.8 2.8 0 001 0c-3.2-2-10.2-7.6-10-16.8a20.2 20.2 0 006.9-.6c1.3-.4 3.5-1.7 5.1-.8a3.4 3.4 0 011.9 2.4c.4 3.9-2.2 7-1.2 13a2.8 2.8 0 00.3.8c1-3.6 4-12 12.9-14.6a20.2 20.2 0 002.6 6.3c.8 1.2 2.7 2.9 2.4 4.6a3.4 3.4 0 01-1.7 2.5c-3.6 1.7-7.4.2-12.7 2.9a2.8 2.8 0 00-.7.5c3.7-.2 12.6.1 17.9 7.8z" fill="#f8b5bd"/>
      <path d="M72.8 22.4a2.8 2.8 0 00-.4.8c3.3-1.7 11.5-5.2 19.5-.5A20.2 20.2 0 0089 29c-.3 1.4-.3 4-1.8 4.9a3.4 3.4 0 01-3 .4C80.7 32.8 79 29 73.6 27a2.8 2.8 0 00-1-.2c2.8 2.6 8.6 9.4 6.6 18.4a20.2 20.2 0 00-6.9-.7c-1.4.1-3.8 1-5.2-.2a3.4 3.4 0 01-1.3-2.8c.3-3.9 3.5-6.5 3.6-12.4a2.8 2.8 0 000-.9c-1.7 3.4-6.3 11-15.5 11.9a20.2 20.2 0 00-1.4-6.8c-.6-1.3-2.1-3.3-1.5-5a3.4 3.4 0 012.2-2c3.8-1 7.3 1.2 13-.5a2.8 2.8 0 00.8-.3c-3.7-.6-12.4-2.6-16-11a20.2 20.2 0 006-3.5c1-1 2.4-3 4.2-3A3.4 3.4 0 0164 9.6c2 3.3 1 7.3 4.4 12.2a2.8 2.8 0 00.6.7c-.7-3.7-1.4-12.6 5.5-18.7a20.2 20.2 0 005.1 4.6c1.2.7 3.7 1.5 4.1 3.2a3.4 3.4 0 01-.5 3c-2.6 3-6.6 3.3-10.3 8z" fill="#b9aaed"/>
      <path class="d" d="M42.8 79.7c-.2 3-3.4 2.9-8-.1-3.2-2-10.3-9.8-8.5-19.8 2.2 7.6 6.4 11.3 12 13 5.5 1.7 7.2 5.5 4.5 7zM106 60.5c-.8 3.3-3.8 3.4-7.5-1.3a50.6 50.6 0 01-8-14.4 50.6 50.6 0 0114.3 8.1c4.7 3.8 4.5 6.8 1.3 7.6zM53.7 78.5c1 3 3.7 3 6.8-1.5 2.2-3.2 3.4-8 4.6-14.7-3.8 6.3-7.6 7-11.2 9.6-4.4 3.2-3.2 6-.2 6.6z"/>
      <path class="d" d="M39.3 76.6a.8.8 0 00-.3 1.6c5.2 1.5 9.6 12.8 11.3 17a14.4 14.4 0 001 2.3.8.8 0 001.3-1l-.8-1.8c-1.9-5-6.3-16.3-12.3-18a.8.8 0 00-.2-.1z"/>
      <path class="d" d="M56.4 75a.8.8 0 00-.3 0c-5.8 2.5-6.9 14.8-5 22.2a.8.8 0 001.5-.4c-1.8-7.5-.3-18.4 4.2-20.3a.8.8 0 00-.4-1.6z"/>
    </g>
  </g>
  <g>
    <path class="l" d="M160.5 839.9a34 34 0 01-36.5 48.3 33.5 33.5 0 01-34.7 7.7 33.5 33.5 0 01-22.5-27.4 33.6 33.6 0 01-18-30.7 33.5 33.5 0 0119-29.9 34 34 0 0158-17.7 34 34 0 0134.7 49.7z"/>
    <path class="c" d="M160.2 803a36 36 0 00-33.6-15.1 36.2 36.2 0 00-60.7 18.5 36.2 36.2 0 00-1.2 63.5 36.2 36.2 0 0060 20.7 36.2 36.2 0 0038.3-50.7 36 36 0 00-2.8-36.8zm-31.6 83.5a32.7 32.7 0 003.2-4.9 29.4 29.4 0 0011.4-16.9 29.4 29.4 0 0013.3-16 29 29 0 001.6-8.7l.4.9a31.7 31.7 0 01-30 45.6zm-44.2-40.1a25.6 25.6 0 0129-32.8c-11.4 10.8-18.2 29-6.1 50.9a25.7 25.7 0 01-22.9-18.1zm22.5 22.5a14.7 14.7 0 01-4 3.6 18.5 18.5 0 01-7.4 2.4 25.2 25.2 0 01-17.8-5 24.5 24.5 0 01-8.6-12.2 25.2 25.2 0 01-.2-14.4 21.9 21.9 0 003.4 3.6 18.8 18.8 0 009 4.4h.3a30.2 30.2 0 0025.3 17.6zm4.8-5.7a47.7 47.7 0 01-5.8-14.9c8.4 2.4 20.2-1 28.7-8.6a25.5 25.5 0 01-22.7 24.7 2.2 2.2 0 00-.2-1.2zm-6.4-19.9a32.2 32.2 0 011.3-10.7c5.6.3 14.3 4.8 15.4 9.7-6 2.5-12.4 3.1-16.7 1zm13.1-28.2a25.6 25.6 0 0115.8 18.9 33 33 0 01-8.1 6.3c-2.2-6.3-11-11.1-17.9-12a38.3 38.3 0 0110.2-13.2zm10 .7a14.5 14.5 0 015.2-.5 18.2 18.2 0 017.5 2.4 24.8 24.8 0 0111.5 14.5 24.2 24.2 0 01-.3 15 25.5 25.5 0 01-8.4 11.7 21.5 21.5 0 00-.5-4.9 18.8 18.8 0 00-4.8-8.9l-.1-.1a30 30 0 00-10.2-29.2zm-14 66.9a25.2 25.2 0 01-13.7-4.4 21 21 0 004.5-2 18.6 18.6 0 007-7.2l.1-.3a30 30 0 0024.6-18.7 14.6 14.6 0 012.1 5 19 19 0 01.1 7.7 24.9 24.9 0 01-10.3 15.5 24.3 24.3 0 01-14.3 4.4zm-44.6-10.4a32 32 0 005.7 1.5 29.2 29.2 0 0019.5 5.6 29.4 29.4 0 0019.4 7.7 29 29 0 008.7-1.2l-.6.7a31.8 31.8 0 01-52.7-14.3zm-4.6-60.4a33.3 33.3 0 00.2 5.9 29.3 29.3 0 00.7 20.4 29.4 29.4 0 00-1.3 20.8 29 29 0 003.8 7.9l-.8-.4a31.8 31.8 0 01-2.6-54.6zm8.1.1a24.2 24.2 0 015.5-5.2 25.7 25.7 0 0113.7-4.6 22.1 22.1 0 00-2.5 4.3 19.1 19.1 0 00-1.3 10v.2a30.1 30.1 0 00-8.9 29.6 14.7 14.7 0 01-4.6-2.8 18.6 18.6 0 01-4.6-6.3 25.1 25.1 0 01-.8-18.5 24.3 24.3 0 013.5-6.7zm47.8-23a33.2 33.2 0 00-5.5 2 29.4 29.4 0 00-19.1 6.9 29.5 29.5 0 00-20.3 5.2 28.3 28.3 0 00-6.3 6l.1-.8a31.8 31.8 0 0151.1-19.4zm2.4 7.7a24.3 24.3 0 016.8 3.6 25.5 25.5 0 018.5 11.6 21.2 21.2 0 00-4.8-1 18.7 18.7 0 00-10 1.7l-.1.2a29.8 29.8 0 00-31 .6 14.7 14.7 0 011.2-5.2 18.8 18.8 0 014.6-6.4 25.2 25.2 0 0117.4-6.4 23.5 23.5 0 017.4 1.3zm36.8 38.3a33 33 0 00-3.6-4.6 29.4 29.4 0 00-12.6-16 29.3 29.3 0 00-11.2-17.7 28.7 28.7 0 00-7.7-4.1l1-.2a31.8 31.8 0 0134 42.6z"/>
  </g>
  <g>
    <path class="b" d="M101.9 567a23.3 23.3 0 01-9.6 40.5 23 23 0 01-19.6 14.4 23 23 0 01-21.8-11 23 23 0 01-19.8-14.2 23 23 0 013.8-24.1 23.3 23.3 0 0131.5-27.1 23.3 23.3 0 0135.5 21.6z"/>
    <path class="c" d="M91.5 544a24.7 24.7 0 00-25.3-.2 24.8 24.8 0 00-33 28.4A24.8 24.8 0 0050 612.4a24.8 24.8 0 0043.4-3.6 24.8 24.8 0 0010-42.4A24.7 24.7 0 0091.5 544zm3.2 61.1a22.4 22.4 0 00.7-4 20.2 20.2 0 002.5-13.7 20.1 20.1 0 004-13.7 19.9 19.9 0 00-1.5-5.9l.5.4a21.8 21.8 0 01-6.2 37zm-38.8-13a17.6 17.6 0 019.1-28.5c-4.1 10-3.4 23.2 10.3 33.6a17.6 17.6 0 01-19.4-5zm20.4 8a10 10 0 01-1.6 3.3 12.7 12.7 0 01-4 3.6 17.3 17.3 0 01-12.5 1.8 16.8 16.8 0 01-8.8-5.3 17.3 17.3 0 01-4-9 15 15 0 003 1.4 13 13 0 006.9.2h.2a20.7 20.7 0 0020.8 4zm1.4-4.9a32.7 32.7 0 01-7.8-7.8c6-.8 12.4-6.2 15.7-13.3a17.5 17.5 0 01-7.4 21.8 1.5 1.5 0 00-.5-.7zm-9.5-10.7a22.1 22.1 0 01-2.2-7.1c3.6-1.4 10.3-1 12.4 1.8-3.1 3.3-7 5.4-10.2 5.3zm.4-21.4a17.6 17.6 0 0115.1 7.5 22.7 22.7 0 01-3.3 6.3c-3.2-3.4-10-4-14.6-2.7a26.3 26.3 0 012.8-11.1zm6.4-2.3a10 10 0 013.2-1.7 12.5 12.5 0 015.3-.6 17 17 0 0111.3 6 16.6 16.6 0 014 9.4 17.5 17.5 0 01-2 9.7 14.8 14.8 0 00-1.8-3 13 13 0 00-5.4-4.2h-.1A20.6 20.6 0 0075 560.8zm9.8 45.8a17.3 17.3 0 01-9.8 1.1 14.4 14.4 0 002.2-2.5 12.8 12.8 0 002.4-6.4v-.2A20.5 20.5 0 0090 580a10 10 0 012.7 2.5 13 13 0 012.2 4.9 17 17 0 01-2.2 12.5 16.7 16.7 0 01-7.8 6.7zm-31 5.9a21.9 21.9 0 004-.6 20 20 0 0013.9-1.9 20.2 20.2 0 0014.3-.5 19.9 19.9 0 005.1-3.2l-.2.6a21.8 21.8 0 01-37 5.6zm-19.5-36.6a22.8 22.8 0 001.8 3.6 20.1 20.1 0 006 12.6 20.2 20.2 0 005 13.4 20 20 0 004.6 4l-.7-.1a21.8 21.8 0 01-16.7-33.5zm5.1-2.3a16.6 16.6 0 012-4.8 17.6 17.6 0 017.3-6.6 15.2 15.2 0 00-.3 3.4 13.1 13.1 0 001.9 6.6v.1a20.7 20.7 0 002.7 21 10.1 10.1 0 01-3.7-.4 12.7 12.7 0 01-4.6-2.6 17.2 17.2 0 01-5.6-11.5 16.6 16.6 0 01.3-5.2zM63.1 546a22.8 22.8 0 00-3 2.8 20.2 20.2 0 00-10 9.7 20.2 20.2 0 00-11.3 8.9 19.4 19.4 0 00-2.3 5.5l-.2-.6a21.8 21.8 0 0126.8-26.3zm3.6 4.3a16.7 16.7 0 015.2.3 17.5 17.5 0 018.6 5 14.6 14.6 0 00-3.3.7 12.8 12.8 0 00-5.7 3.8l-.1.1a20.5 20.5 0 00-19.2 9 10.1 10.1 0 01-.8-3.6 13 13 0 011.2-5.2 17.3 17.3 0 019.1-9 16.1 16.1 0 015-1.1zm33.7 13.8a22.6 22.6 0 00-3.6-1.8 20.2 20.2 0 00-12.3-6.7 20.1 20.1 0 00-11.8-8 19.7 19.7 0 00-6-.4l.5-.4a21.8 21.8 0 0133.2 17.3z"/>
  </g>
  <g>
    <path class="l" d="M195.3 204a30 30 0 01-43 31.8 29.7 29.7 0 01-31.4-2.1 29.7 29.7 0 01-12.3-29 29.7 29.7 0 01-7.6-30.4 29.7 29.7 0 0123.7-20.6 30 30 0 0153.6-.5 30 30 0 0117 50.8z"/>
    <path class="c" d="M204.3 172.8a31.8 31.8 0 00-24.7-21.4 32 32 0 00-56.2.5 32 32 0 00-16.9 53.5 32 32 0 0045.7 32.7 32 32 0 0045.2-33.4 31.9 31.9 0 006.9-32zm-47.8 62.8a28.9 28.9 0 004-3.4 26 26 0 0013.9-11.4 26 26 0 0015.3-10.3 25.6 25.6 0 003.5-7l.1.9a28 28 0 01-36.8 31.2zm-27.4-45.1a22.7 22.7 0 0132.7-20.5c-12.3 6.3-22.6 20-17.8 41.6a22.7 22.7 0 01-14.9-21.1zm13.5 24.8a13 13 0 01-4.3 2 16.4 16.4 0 01-7 .2 22.2 22.2 0 01-13.8-8.7 21.7 21.7 0 01-4.2-12.6 22.3 22.3 0 013.5-12.2 19.3 19.3 0 001.9 3.9 16.7 16.7 0 006.5 6h.3a26.7 26.7 0 0017 21.4zm5.4-3.7a42.2 42.2 0 01-1.1-14.1c6.5 4.2 17.4 4.2 26.5 0a22.6 22.6 0 01-25.5 15.2 2 2 0 00.1-1zm-.4-18.5a28.5 28.5 0 013.8-8.7c4.7 1.6 10.9 7.6 10.6 12-5.8.7-11.3-.4-14.4-3.3zm18.2-20.6a22.6 22.6 0 018.6 20 29.2 29.2 0 01-8.4 3.3c-.3-6-6.6-12.2-12.2-14.7a33.8 33.8 0 0112-8.6zm8.2 3a12.8 12.8 0 014.6 1 16 16 0 015.7 3.9 22 22 0 016.2 15.1 21.4 21.4 0 01-4 12.7 22.5 22.5 0 01-10 7.8 19 19 0 00.7-4.2 16.7 16.7 0 00-1.8-8.8v-.1a26.5 26.5 0 00-1.4-27.3zm-28.5 53.3a22.2 22.2 0 01-10.6-7.1 18.6 18.6 0 004.4-.6 16.5 16.5 0 007.7-4.4l.1-.2a26.4 26.4 0 0025.6-9.7 12.9 12.9 0 01.6 4.7 16.8 16.8 0 01-2 6.7 22 22 0 01-12.5 10.5 21.5 21.5 0 01-13.3 0zm-35.3-20a28.2 28.2 0 004.4 2.7 25.8 25.8 0 0015.2 9.7 26 26 0 0014.5 11.4 25.6 25.6 0 007.7 1.1l-.7.4a28 28 0 01-41-25.3zm11.2-52.3a29.4 29.4 0 00-1.2 5 26 26 0 00-4.5 17.4 26 26 0 00-6.4 17.4 25.7 25.7 0 001.3 7.6l-.6-.5a28 28 0 0111.4-47zm7 2a21.4 21.4 0 015.9-3 22.7 22.7 0 0112.7-.5 19.6 19.6 0 00-3.1 3 16.9 16.9 0 00-3.7 8.2v.2a26.6 26.6 0 00-15 22.8 13 13 0 01-3.2-3.4 16.4 16.4 0 01-2.3-6.5 22.2 22.2 0 014-16 21.4 21.4 0 014.6-4.7zm46.3-7.5a29.3 29.3 0 00-5.2.3 26 26 0 00-18 1 26 26 0 00-18.5-.6 25 25 0 00-6.8 3.6c0-.3.2-.5.3-.8a28 28 0 0148.2-3.5zm0 7.2a21.5 21.5 0 014.9 4.7 22.6 22.6 0 014.3 12 18.8 18.8 0 00-3.8-2 16.6 16.6 0 00-8.9-1h-.2a26.4 26.4 0 00-26.3-7.2 13 13 0 012.2-4.1 16.7 16.7 0 015.5-4.3 22.3 22.3 0 0116.4-1.1 20.8 20.8 0 016 3zm21.6 41.6a29.1 29.1 0 00-2-4.8 26 26 0 00-6.5-16.7 26 26 0 00-5-17.8 25.4 25.4 0 00-5.6-5.4h.8a28 28 0 0118.3 44.7z"/>
  </g>
</svg>
